<svg xmlns="http://www.w3.org/2000/svg" viewBox="0 0 512 512" fill="none">
  <defs>
    <linearGradient id="bg" x1="64" y1="48" x2="448" y2="464" gradientUnits="userSpaceOnUse">
      <stop stop-color="#4f8cff"/>
      <stop stop-color="#7c6cf0"/>
      <stop offset="1" stop-color="#a78bfa"/>
    </linearGradient>
    <linearGradient id="shine" x1="128" y1="64" x2="384" y2="320" gradientUnits="userSpaceOnUse">
      <stop stop-color="#fff" stop-opacity="0.28"/>
      <stop offset="1" stop-color="#fff" stop-opacity="0"/>
    </linearGradient>
    <filter id="shadow" x="-20%" y="-20%" width="140%" height="140%">
      <feDropShadow dx="0" dy="8" stdDeviation="12" flood-color="#000" flood-opacity="0.25"/>
    </filter>
  </defs>
  <rect width="512" height="512" rx="112" fill="url(#bg)"/>
  <rect width="512" height="512" rx="112" fill="url(#shine)"/>
  <g filter="url(#shadow)">
    <path d="M256 118c-58 0-105 18-105 40v196c0 22 47 40 105 40s105-18 105-40V158c0-22-47-40-105-40z" fill="#fff" fill-opacity="0.12"/>
    <path d="M256 118v276c58 0 105-18 105-40V158c0-22-47-40-105-40z" fill="#fff" fill-opacity="0.08"/>
    <path d="M256 118c-58 0-105 18-105 40v196c0 22 47 40 105 40V118z" fill="#fff"/>
    <path d="M256 118v276c-58 0-105-18-105-40V158c0-22 47-40 105-40z" fill="#fff" fill-opacity="0.92"/>
    <path d="M256 118v276" stroke="#4f8cff" stroke-width="6" stroke-linecap="round"/>
    <path d="M196 188h120M196 228h96M196 268h108" stroke="#4f8cff" stroke-width="10" stroke-linecap="round" opacity="0.55"/>
    <path d="M196 188h120M196 228h96M196 268h108" stroke="#fff" stroke-width="10" stroke-linecap="round" opacity="0.35"/>
  </g>
  <circle cx="372" cy="372" r="52" fill="#3dd68c"/>
  <circle cx="372" cy="372" r="52" fill="#fff" fill-opacity="0.15"/>
  <text x="372" y="392" text-anchor="middle" font-family="Inter, system-ui, sans-serif" font-size="56" font-weight="700" fill="#fff">4</text>
</svg>
